<svg xmlns="http://www.w3.org/2000/svg" xmlns:svg="http://www.w3.org/2000/svg" id="svg2" width="744.094" height="1052.362" version="1.1"><metadata id="metadata7"/><g id="layer1"><g id="g3006" transform="matrix(0.07462687,0,0,0.07462687,-106.34331,286.09351)" style="fill:none;stroke-width:.025in"><rect id="rect3008" width="1800" height="600" x="2700" y="1200" rx="0" style="stroke:#000;stroke-width:7;stroke-linecap:butt;stroke-linejoin:miter"/><rect id="rect3010" width="1800" height="600" x="2700" y="2400" rx="0" style="stroke:#000;stroke-width:7;stroke-linecap:butt;stroke-linejoin:miter"/><rect id="rect3012" width="1800" height="600" x="2700" y="3600" rx="0" style="stroke:#000;stroke-width:7;stroke-linecap:butt;stroke-linejoin:miter"/><rect id="rect3014" width="1500" height="600" x="8400" y="3600" rx="0" style="stroke:#000;stroke-width:7;stroke-linecap:butt;stroke-linejoin:miter"/><rect id="rect3016" width="1500" height="900" x="3900" y="4800" rx="0" style="stroke:#000;stroke-width:7;stroke-linecap:butt;stroke-linejoin:miter"/><rect id="rect3018" width="1500" height="900" x="1800" y="4800" rx="0" style="stroke:#000;stroke-width:7;stroke-linecap:butt;stroke-linejoin:miter"/><rect id="rect3020" width="1500" height="900" x="6300" y="4800" rx="0" style="stroke:#000;stroke-width:7;stroke-linecap:butt;stroke-linejoin:miter"/><rect id="rect3022" width="1500" height="900" x="8400" y="4800" rx="0" style="stroke:#000;stroke-width:7;stroke-linecap:butt;stroke-linejoin:miter"/><rect id="rect3024" width="1500" height="900" x="10500" y="4800" rx="0" style="stroke:#000;stroke-width:7;stroke-linecap:butt;stroke-linejoin:miter"/><rect id="rect3026" width="1200" height="600" x="900" y="2400" rx="0" style="stroke:#000;stroke-width:7;stroke-linecap:butt;stroke-linejoin:miter"/><polygon id="polygon3028" points="3600 4200 3600 4200 3525 4350 3675 4350" style="stroke:#000;stroke-width:7;stroke-linecap:butt;stroke-linejoin:miter"/><polyline id="polyline3030" points="3150 4800 3150 4500 4050 4500 4050 4800" style="stroke:#000;stroke-width:7;stroke-linecap:butt;stroke-linejoin:miter"/><polyline id="polyline3032" points="3600 4350 3600 4500" style="stroke:#000;stroke-width:7;stroke-linecap:butt;stroke-linejoin:miter"/><polygon id="polygon3034" points="9150 4200 9150 4200 9075 4350 9225 4350" style="stroke:#000;stroke-width:7;stroke-linecap:butt;stroke-linejoin:miter"/><polyline id="polyline3036" points="7050 4800 7050 4500 10950 4500 10950 4800" style="stroke:#000;stroke-width:7;stroke-linecap:butt;stroke-linejoin:miter"/><polyline id="polyline3038" points="9150 4350 9150 4800" style="stroke:#000;stroke-width:7;stroke-linecap:butt;stroke-linejoin:miter"/><polyline id="polyline3040" points="11550 4650 11550 3900 10019 3900" style="stroke:#000;stroke-width:7;stroke-linecap:butt;stroke-linejoin:miter"/><polygon id="polygon3042" points="10021 3870 10021 3870 9901 3900 10021 3930" style="fill:#000;stroke:#000;stroke-width:7;stroke-miterlimit:8"/><polyline id="polyline3044" points="4650 3900 8280 3900" style="stroke:#000;stroke-width:7;stroke-linecap:butt;stroke-linejoin:miter"/><polygon id="polygon3046" points="8279 3930 8279 3930 8399 3900 8279 3870" style="fill:#000;stroke:#000;stroke-width:7;stroke-miterlimit:8"/><polyline id="polyline3048" points="3900 2250 3900 1919" style="stroke:#000;stroke-width:7;stroke-linecap:butt;stroke-linejoin:miter"/><polygon id="polygon3050" points="3930 1921 3930 1921 3900 1801 3870 1921" style="fill:#000;stroke:#000;stroke-width:7;stroke-miterlimit:8"/><polyline id="polyline3052" points="3300 1950 3300 2280" style="stroke:#000;stroke-width:7;stroke-linecap:butt;stroke-linejoin:miter"/><polygon id="polygon3054" points="3270 2279 3270 2279 3300 2399 3330 2279" style="fill:#000;stroke:#000;stroke-width:7;stroke-miterlimit:8"/><polyline id="polyline3056" points="3600 3150 3600 3480" style="stroke:#000;stroke-width:7;stroke-linecap:butt;stroke-linejoin:miter"/><polygon id="polygon3058" points="3570 3479 3570 3479 3600 3599 3630 3479" style="fill:#000;stroke:#000;stroke-width:7;stroke-miterlimit:8"/><polyline id="polyline3060" points="4350 4650 4350 4319" style="stroke:#000;stroke-width:7;stroke-linecap:butt;stroke-linejoin:miter"/><polygon id="polygon3062" points="4380 4321 4380 4321 4350 4201 4320 4321" style="fill:#000;stroke:#000;stroke-width:7;stroke-miterlimit:8"/><polyline id="polyline3064" points="2850 4650 2850 4319" style="stroke:#000;stroke-width:7;stroke-linecap:butt;stroke-linejoin:miter"/><polygon id="polygon3066" points="2880 4321 2880 4321 2850 4201 2820 4321" style="fill:#000;stroke:#000;stroke-width:7;stroke-miterlimit:8"/><polyline id="polyline3068" points="1500 3150 1500 3900 2580 3900" style="stroke:#000;stroke-width:7;stroke-linecap:butt;stroke-linejoin:miter"/><polygon id="polygon3070" points="2579 3930 2579 3930 2699 3900 2579 3870" style="fill:#000;stroke:#000;stroke-width:7;stroke-miterlimit:8"/><polygon id="polygon3072" points="4575 3940 4650 3900 4650 3900 4575 3860 4500 3900" style="stroke:#000;stroke-width:7;stroke-linecap:butt;stroke-linejoin:miter"/><polygon id="polygon3074" points="1540 3075 1500 3000 1500 3000 1460 3075 1500 3150" style="stroke:#000;stroke-width:7;stroke-linecap:butt;stroke-linejoin:miter"/><polygon id="polygon3076" points="3640 3075 3600 3000 3600 3000 3560 3075 3600 3150" style="stroke:#000;stroke-width:7;stroke-linecap:butt;stroke-linejoin:miter"/><polygon id="polygon3078" points="3340 1875 3300 1800 3300 1800 3260 1875 3300 1950" style="stroke:#000;stroke-width:7;stroke-linecap:butt;stroke-linejoin:miter"/><polygon id="polygon3080" points="3940 2325 3900 2250 3900 2250 3860 2325 3900 2400" style="stroke:#000;stroke-width:7;stroke-linecap:butt;stroke-linejoin:miter"/><polygon id="polygon3082" points="4390 4725 4350 4650 4350 4650 4310 4725 4350 4800" style="stroke:#000;stroke-width:7;stroke-linecap:butt;stroke-linejoin:miter"/><polygon id="polygon3084" points="2890 4725 2850 4650 2850 4650 2810 4725 2850 4800" style="stroke:#000;stroke-width:7;stroke-linecap:butt;stroke-linejoin:miter"/><polygon id="polygon3086" points="11590 4725 11550 4650 11550 4650 11510 4725 11550 4800" style="stroke:#000;stroke-width:7;stroke-linecap:butt;stroke-linejoin:miter"/><polyline id="polyline3088" points="3600 1200 3600 900" style="stroke:#000;stroke-width:7;stroke-linecap:butt;stroke-linejoin:miter;stroke-dasharray:40,40"/><text id="text3090" x="2925" y="1575" xml:space="preserve" style="font-size:192px;font-style:normal;font-weight:400;text-anchor:start;fill:#000;font-family:Times">Environment</text><text id="text3092" x="3600" y="2775" xml:space="preserve" style="font-size:192px;font-style:normal;font-weight:400;text-anchor:middle;fill:#000;font-family:Times">BuilderWrapper</text><text id="text3094" x="3600" y="3975" xml:space="preserve" style="font-size:192px;font-style:normal;font-weight:400;text-anchor:middle;fill:#000;font-family:Times">BuilderBase</text><text id="text3096" x="9150" y="3975" xml:space="preserve" style="font-size:192px;font-style:normal;font-weight:400;text-anchor:middle;fill:#000;font-family:Times">ActionBase</text><text id="text3098" x="4650" y="5175" xml:space="preserve" style="font-size:192px;font-style:normal;font-weight:400;text-anchor:middle;fill:#000;font-family:Times">MultiStep-</text><text id="text3100" x="4650" y="5460" xml:space="preserve" style="font-size:192px;font-style:normal;font-weight:400;text-anchor:middle;fill:#000;font-family:Times">Builder</text><text id="text3102" x="2550" y="5175" xml:space="preserve" style="font-size:192px;font-style:normal;font-weight:400;text-anchor:middle;fill:#000;font-family:Times">Composite-</text><text id="text3104" x="2550" y="5460" xml:space="preserve" style="font-size:192px;font-style:normal;font-weight:400;text-anchor:middle;fill:#000;font-family:Times">Builder</text><text id="text3106" x="7050" y="5175" xml:space="preserve" style="font-size:192px;font-style:normal;font-weight:400;text-anchor:middle;fill:#000;font-family:Times">Command</text><text id="text3108" x="7050" y="5460" xml:space="preserve" style="font-size:192px;font-style:normal;font-weight:400;text-anchor:middle;fill:#000;font-family:Times">Action</text><text id="text3110" x="9150" y="5460" xml:space="preserve" style="font-size:192px;font-style:normal;font-weight:400;text-anchor:middle;fill:#000;font-family:Times">Action</text><text id="text3112" x="9150" y="5175" xml:space="preserve" style="font-size:192px;font-style:normal;font-weight:400;text-anchor:middle;fill:#000;font-family:Times">Function</text><text id="text3114" x="11250" y="5175" xml:space="preserve" style="font-size:192px;font-style:normal;font-weight:400;text-anchor:middle;fill:#000;font-family:Times">List</text><text id="text3116" x="11250" y="5460" xml:space="preserve" style="font-size:192px;font-style:normal;font-weight:400;text-anchor:middle;fill:#000;font-family:Times">Action</text><text id="text3118" x="1500" y="2775" xml:space="preserve" style="font-size:192px;font-style:normal;font-weight:400;text-anchor:middle;fill:#000;font-family:Times">Node</text></g></g></svg>