<svg xmlns="http://www.w3.org/2000/svg" xmlns:svg="http://www.w3.org/2000/svg" id="svg2" width="744.094" height="1052.362" version="1.1"><metadata id="metadata7"/><g id="layer1"><g id="g3223" transform="matrix(0.07538995,0,0,0.07538995,69.670703,249.64987)" style="fill:none;stroke-width:.025in"><rect id="rect3225" width="900" height="600" x="4200" y="3900" rx="0" style="stroke:#000;stroke-width:7;stroke-linecap:butt;stroke-linejoin:miter"/><rect id="rect3227" width="900" height="600" x="4200" y="5100" rx="0" style="stroke:#000;stroke-width:7;stroke-linecap:butt;stroke-linejoin:miter"/><rect id="rect3229" width="900" height="600" x="6300" y="2100" rx="0" style="stroke:#000;stroke-width:7;stroke-linecap:butt;stroke-linejoin:miter"/><rect id="rect3231" width="1200" height="600" x="6300" y="3300" rx="0" style="stroke:#000;stroke-width:7;stroke-linecap:butt;stroke-linejoin:miter"/><rect id="rect3233" width="1500" height="600" x="4200" y="2100" rx="0" style="stroke:#000;stroke-width:7;stroke-linecap:butt;stroke-linejoin:miter"/><rect id="rect3235" width="1200" height="600" x="2400" y="3300" rx="0" style="stroke:#000;stroke-width:7;stroke-linecap:butt;stroke-linejoin:miter"/><rect id="rect3237" width="1200" height="600" x="600" y="3300" rx="0" style="stroke:#000;stroke-width:7;stroke-linecap:butt;stroke-linejoin:miter"/><rect id="rect3239" width="1800" height="600" x="1200" y="2100" rx="0" style="stroke:#000;stroke-width:7;stroke-linecap:butt;stroke-linejoin:miter"/><polygon id="polygon3241" points="2740 2775 2700 2700 2700 2700 2660 2775 2700 2850" style="stroke:#000;stroke-width:7;stroke-linecap:butt;stroke-linejoin:miter"/><polygon id="polygon3243" points="5775 2360 5700 2400 5700 2400 5775 2440 5850 2400" style="stroke:#000;stroke-width:7;stroke-linecap:butt;stroke-linejoin:miter"/><polygon id="polygon3245" points="5440 2775 5400 2700 5400 2700 5360 2775 5400 2850" style="stroke:#000;stroke-width:7;stroke-linecap:butt;stroke-linejoin:miter"/><polygon id="polygon3247" points="4690 2775 4650 2700 4650 2700 4610 2775 4650 2850" style="stroke:#000;stroke-width:7;stroke-linecap:butt;stroke-linejoin:miter"/><polygon id="polygon3249" points="1540 2775 1500 2700 1500 2700 1460 2775 1500 2850" style="stroke:#000;stroke-width:7;stroke-linecap:butt;stroke-linejoin:miter"/><polygon id="polygon3251" points="4690 4575 4650 4500 4650 4500 4610 4575 4650 4650" style="stroke:#000;stroke-width:7;stroke-linecap:butt;stroke-linejoin:miter"/><polyline id="polyline3253" points="1500 2850 1500 3180" style="stroke:#000;stroke-width:7;stroke-linecap:butt;stroke-linejoin:miter"/><polygon id="polygon3255" points="1470 3179 1470 3179 1500 3299 1530 3179" style="fill:#000;stroke:#000;stroke-width:7;stroke-miterlimit:8"/><polyline id="polyline3257" points="2700 2850 2700 3180" style="stroke:#000;stroke-width:7;stroke-linecap:butt;stroke-linejoin:miter"/><polygon id="polygon3259" points="2670 3179 2670 3179 2700 3299 2730 3179" style="fill:#000;stroke:#000;stroke-width:7;stroke-miterlimit:8"/><polyline id="polyline3261" points="4650 2850 4650 3780" style="stroke:#000;stroke-width:7;stroke-linecap:butt;stroke-linejoin:miter"/><polygon id="polygon3263" points="4620 3779 4620 3779 4650 3899 4680 3779" style="fill:#000;stroke:#000;stroke-width:7;stroke-miterlimit:8"/><polyline id="polyline3265" points="4650 4650 4650 4980" style="stroke:#000;stroke-width:7;stroke-linecap:butt;stroke-linejoin:miter"/><polygon id="polygon3267" points="4620 4979 4620 4979 4650 5099 4680 4979" style="fill:#000;stroke:#000;stroke-width:7;stroke-miterlimit:8"/><polyline id="polyline3269" points="5400 2850 5400 3600 6180 3600" style="stroke:#000;stroke-width:7;stroke-linecap:butt;stroke-linejoin:miter"/><polygon id="polygon3271" points="6179 3630 6179 3630 6299 3600 6179 3570" style="fill:#000;stroke:#000;stroke-width:7;stroke-miterlimit:8"/><polyline id="polyline3273" points="5850 2400 6180 2400" style="stroke:#000;stroke-width:7;stroke-linecap:butt;stroke-linejoin:miter"/><polygon id="polygon3275" points="6179 2430 6179 2430 6299 2400 6179 2370" style="fill:#000;stroke:#000;stroke-width:7;stroke-miterlimit:8"/><polygon id="polygon3277" points="3075 2360 3000 2400 3000 2400 3075 2440 3150 2400" style="stroke:#000;stroke-width:7;stroke-linecap:butt;stroke-linejoin:miter"/><polyline id="polyline3279" points="3150 2400 4080 2400" style="stroke:#000;stroke-width:7;stroke-linecap:butt;stroke-linejoin:miter"/><polygon id="polygon3281" points="4079 2430 4079 2430 4199 2400 4079 2370" style="fill:#000;stroke:#000;stroke-width:7;stroke-miterlimit:8"/><polyline id="polyline3283" points="2100 2100 2100 1800" style="stroke:#000;stroke-width:7;stroke-linecap:butt;stroke-linejoin:miter;stroke-dasharray:40,40"/><polyline id="polyline3285" points="4950 2100 4950 1800" style="stroke:#000;stroke-width:7;stroke-linecap:butt;stroke-linejoin:miter;stroke-dasharray:40,40"/><polyline id="polyline3287" points="6750 2100 6750 1800" style="stroke:#000;stroke-width:7;stroke-linecap:butt;stroke-linejoin:miter;stroke-dasharray:40,40"/><text id="text3289" x="4650" y="4275" xml:space="preserve" style="font-size:192px;font-style:normal;font-weight:400;text-anchor:middle;fill:#000;font-family:Times">Task</text><text id="text3291" x="4650" y="5475" xml:space="preserve" style="font-size:192px;font-style:normal;font-weight:400;text-anchor:middle;fill:#000;font-family:Times">Node</text><text id="text3293" x="6750" y="2475" xml:space="preserve" style="font-size:192px;font-style:normal;font-weight:400;text-anchor:middle;fill:#000;font-family:Times">Sig</text><text id="text3295" x="6900" y="3675" xml:space="preserve" style="font-size:192px;font-style:normal;font-weight:400;text-anchor:middle;fill:#000;font-family:Times">Walker</text><text id="text3297" x="4950" y="2475" xml:space="preserve" style="font-size:192px;font-style:normal;font-weight:400;text-anchor:middle;fill:#000;font-family:Times">TaskMaster</text><text id="text3299" x="3000" y="3675" xml:space="preserve" style="font-size:192px;font-style:normal;font-weight:400;text-anchor:middle;fill:#000;font-family:Times">Parallel</text><text id="text3301" x="1200" y="3675" xml:space="preserve" style="font-size:192px;font-style:normal;font-weight:400;text-anchor:middle;fill:#000;font-family:Times">Serial</text><text id="text3303" x="2099" y="2475" xml:space="preserve" style="font-size:204px;font-style:normal;font-weight:400;text-anchor:middle;fill:#000;font-family:Times">Jobs</text></g></g></svg>