<svg xmlns="http://www.w3.org/2000/svg" xmlns:svg="http://www.w3.org/2000/svg" id="svg2" width="744.094" height="1052.362" version="1.1"><metadata id="metadata7"/><g id="layer1"><g id="g3392" transform="matrix(0.0747012,0,0,0.0747012,94.8705,241.0275)" style="fill:none;stroke-width:.025in"><rect id="rect3394" width="1800" height="600" x="2700" y="1200" rx="0" style="stroke:#000;stroke-width:7;stroke-linecap:butt;stroke-linejoin:miter"/><rect id="rect3396" width="1800" height="600" x="2700" y="3600" rx="0" style="stroke:#000;stroke-width:7;stroke-linecap:butt;stroke-linejoin:miter"/><rect id="rect3398" width="1200" height="600" x="5700" y="1800" rx="0" style="stroke:#000;stroke-width:7;stroke-linecap:butt;stroke-linejoin:miter"/><rect id="rect3400" width="1200" height="600" x="2100" y="2400" rx="0" style="stroke:#000;stroke-width:7;stroke-linecap:butt;stroke-linejoin:miter"/><rect id="rect3402" width="1200" height="600" x="3900" y="2400" rx="0" style="stroke:#000;stroke-width:7;stroke-linecap:butt;stroke-linejoin:miter"/><rect id="rect3404" width="900" height="600" x="2400" y="6300" rx="0" style="stroke:#000;stroke-width:7;stroke-linecap:butt;stroke-linejoin:miter"/><rect id="rect3406" width="900" height="600" x="0" y="6300" rx="0" style="stroke:#000;stroke-width:7;stroke-linecap:butt;stroke-linejoin:miter"/><rect id="rect3408" width="900" height="600" x="1200" y="6300" rx="0" style="stroke:#000;stroke-width:7;stroke-linecap:butt;stroke-linejoin:miter"/><rect id="rect3410" width="1200" height="600" x="1050" y="5100" rx="0" style="stroke:#000;stroke-width:7;stroke-linecap:butt;stroke-linejoin:miter"/><polygon id="polygon3412" points="1650 5700 1650 5700 1575 5850 1725 5850" style="stroke:#000;stroke-width:7;stroke-linecap:butt;stroke-linejoin:miter"/><polyline id="polyline3414" points="450 6300 450 6000 2700 6000 2700 6300" style="stroke:#000;stroke-width:7;stroke-linecap:butt;stroke-linejoin:miter"/><polyline id="polyline3416" points="1650 6300 1650 5850" style="stroke:#000;stroke-width:7;stroke-linecap:butt;stroke-linejoin:miter"/><rect id="rect3418" width="1200" height="600" x="5100" y="6300" rx="0" style="stroke:#000;stroke-width:7;stroke-linecap:butt;stroke-linejoin:miter;stroke-dasharray:40,40"/><rect id="rect3420" width="900" height="600" x="6600" y="6300" rx="0" style="stroke:#000;stroke-width:7;stroke-linecap:butt;stroke-linejoin:miter;stroke-dasharray:40,40"/><rect id="rect3422" width="1200" height="600" x="4950" y="5100" rx="0" style="stroke:#000;stroke-width:7;stroke-linecap:butt;stroke-linejoin:miter;stroke-dasharray:40,40"/><polygon id="polygon3424" points="5550 5700 5550 5700 5475 5850 5625 5850" style="stroke:#000;stroke-width:7;stroke-linecap:butt;stroke-linejoin:miter"/><polyline id="polyline3426" points="4350 6300 4350 6000 7050 6000 7050 6300" style="stroke:#000;stroke-width:7;stroke-linecap:butt;stroke-linejoin:miter;stroke-dasharray:40,40"/><polyline id="polyline3428" points="5550 5850 5550 6300" style="stroke:#000;stroke-width:7;stroke-linecap:butt;stroke-linejoin:miter;stroke-dasharray:40,40"/><rect id="rect3430" width="900" height="600" x="3900" y="6300" rx="0" style="stroke:#000;stroke-width:7;stroke-linecap:butt;stroke-linejoin:miter;stroke-dasharray:40,40"/><rect id="rect3432" width="1200" height="600" x="5700" y="3000" rx="0" style="stroke:#000;stroke-width:7;stroke-linecap:butt;stroke-linejoin:miter"/><rect id="rect3434" width="900" height="600" x="900" y="1200" rx="0" style="stroke:#000;stroke-width:7;stroke-linecap:butt;stroke-linejoin:miter"/><polygon id="polygon3436" points="3600 4200 3600 4200 3525 4350 3675 4350" style="stroke:#000;stroke-width:7;stroke-linecap:butt;stroke-linejoin:miter"/><polyline id="polyline3438" points="1800 5100 1800 4800 5550 4800 5550 5100" style="stroke:#000;stroke-width:7;stroke-linecap:butt;stroke-linejoin:miter"/><polyline id="polyline3440" points="3600 4800 3600 4350" style="stroke:#000;stroke-width:7;stroke-linecap:butt;stroke-linejoin:miter"/><polygon id="polygon3442" points="4240 1875 4200 1800 4200 1800 4160 1875 4200 1950" style="stroke:#000;stroke-width:7;stroke-linecap:butt;stroke-linejoin:miter"/><polygon id="polygon3444" points="3040 6225 3000 6150 3000 6150 2960 6225 3000 6300" style="stroke:#000;stroke-width:7;stroke-linecap:butt;stroke-linejoin:miter"/><polygon id="polygon3446" points="6340 3675 6300 3600 6300 3600 6260 3675 6300 3750" style="stroke:#000;stroke-width:7;stroke-linecap:butt;stroke-linejoin:miter"/><polygon id="polygon3448" points="6340 2475 6300 2400 6300 2400 6260 2475 6300 2550" style="stroke:#000;stroke-width:7;stroke-linecap:butt;stroke-linejoin:miter"/><polygon id="polygon3450" points="3040 4275 3000 4200 3000 4200 2960 4275 3000 4350" style="stroke:#000;stroke-width:7;stroke-linecap:butt;stroke-linejoin:miter"/><polygon id="polygon3452" points="4240 3525 4200 3450 4200 3450 4160 3525 4200 3600" style="stroke:#000;stroke-width:7;stroke-linecap:butt;stroke-linejoin:miter"/><polygon id="polygon3454" points="3040 3525 3000 3450 3000 3450 2960 3525 3000 3600" style="stroke:#000;stroke-width:7;stroke-linecap:butt;stroke-linejoin:miter"/><polyline id="polyline3456" points="3000 6150 3000 5400 2369 5400" style="stroke:#000;stroke-width:7;stroke-linecap:butt;stroke-linejoin:miter"/><polygon id="polygon3458" points="2371 5370 2371 5370 2251 5400 2371 5430" style="fill:#000;stroke:#000;stroke-width:7;stroke-miterlimit:8"/><polyline id="polyline3460" points="3000 4350 3000 4500 1800 4500 1800 3900 2580 3900" style="stroke:#000;stroke-width:7;stroke-linecap:butt;stroke-linejoin:miter"/><polygon id="polygon3462" points="2579 3930 2579 3930 2699 3900 2579 3870" style="fill:#000;stroke:#000;stroke-width:7;stroke-miterlimit:8"/><polyline id="polyline3464" points="6300 3750 6300 3900 4619 3900" style="stroke:#000;stroke-width:7;stroke-linecap:butt;stroke-linejoin:miter"/><polygon id="polygon3466" points="4621 3870 4621 3870 4501 3900 4621 3930" style="fill:#000;stroke:#000;stroke-width:7;stroke-miterlimit:8"/><polyline id="polyline3468" points="4200 3450 4200 3119" style="stroke:#000;stroke-width:7;stroke-linecap:butt;stroke-linejoin:miter"/><polygon id="polygon3470" points="4230 3121 4230 3121 4200 3001 4170 3121" style="fill:#000;stroke:#000;stroke-width:7;stroke-miterlimit:8"/><polyline id="polyline3472" points="3000 3450 3000 3119" style="stroke:#000;stroke-width:7;stroke-linecap:butt;stroke-linejoin:miter"/><polygon id="polygon3474" points="3030 3121 3030 3121 3000 3001 2970 3121" style="fill:#000;stroke:#000;stroke-width:7;stroke-miterlimit:8"/><polygon id="polygon3476" points="3040 1875 3000 1800 3000 1800 2960 1875 3000 1950" style="stroke:#000;stroke-width:7;stroke-linecap:butt;stroke-linejoin:miter"/><polyline id="polyline3478" points="3000 1950 3000 2280" style="stroke:#000;stroke-width:7;stroke-linecap:butt;stroke-linejoin:miter"/><polygon id="polygon3480" points="2970 2279 2970 2279 3000 2399 3030 2279" style="fill:#000;stroke:#000;stroke-width:7;stroke-miterlimit:8"/><polyline id="polyline3482" points="4200 1950 4200 2280" style="stroke:#000;stroke-width:7;stroke-linecap:butt;stroke-linejoin:miter"/><polygon id="polygon3484" points="4170 2279 4170 2279 4200 2399 4230 2279" style="fill:#000;stroke:#000;stroke-width:7;stroke-miterlimit:8"/><polyline id="polyline3486" points="6300 2550 6300 2880" style="stroke:#000;stroke-width:7;stroke-linecap:butt;stroke-linejoin:miter"/><polygon id="polygon3488" points="6270 2879 6270 2879 6300 2999 6330 2879" style="fill:#000;stroke:#000;stroke-width:7;stroke-miterlimit:8"/><polyline id="polyline3490" points="5100 6600 4919 6600" style="stroke:#000;stroke-width:7;stroke-linecap:butt;stroke-linejoin:miter"/><polygon id="polygon3492" points="4921 6570 4921 6570 4801 6600 4921 6630" style="fill:#000;stroke:#000;stroke-width:7;stroke-miterlimit:8"/><polyline id="polyline3494" points="6600 6600 6419 6600" style="stroke:#000;stroke-width:7;stroke-linecap:butt;stroke-linejoin:miter"/><polygon id="polygon3496" points="6421 6570 6421 6570 6301 6600 6421 6630" style="fill:#000;stroke:#000;stroke-width:7;stroke-miterlimit:8"/><polygon id="polygon3498" points="1390 1875 1350 1800 1350 1800 1310 1875 1350 1950" style="stroke:#000;stroke-width:7;stroke-linecap:butt;stroke-linejoin:miter"/><polyline id="polyline3500" points="1350 1950 1350 4980" style="stroke:#000;stroke-width:7;stroke-linecap:butt;stroke-linejoin:miter"/><polygon id="polygon3502" points="1320 4979 1320 4979 1350 5099 1380 4979" style="fill:#000;stroke:#000;stroke-width:7;stroke-miterlimit:8"/><polyline id="polyline3504" points="1350 1200 1350 900" style="stroke:#000;stroke-width:7;stroke-linecap:butt;stroke-linejoin:miter;stroke-dasharray:40,40"/><polyline id="polyline3506" points="3600 1200 3600 900" style="stroke:#000;stroke-width:7;stroke-linecap:butt;stroke-linejoin:miter;stroke-dasharray:40,40"/><text id="text3508" x="2925" y="1575" xml:space="preserve" style="font-size:192px;font-style:normal;font-weight:400;text-anchor:start;fill:#000;font-family:Times">Environment</text><text id="text3510" x="3375" y="3975" xml:space="preserve" style="font-size:192px;font-style:normal;font-weight:400;text-anchor:start;fill:#000;font-family:Times">Node</text><text id="text3512" x="5925" y="2175" xml:space="preserve" style="font-size:192px;font-style:normal;font-weight:400;text-anchor:start;fill:#000;font-family:Times">Walker</text><text id="text3514" x="2325" y="2775" xml:space="preserve" style="font-size:192px;font-style:normal;font-weight:400;text-anchor:start;fill:#000;font-family:Times">Builder</text><text id="text3516" x="4125" y="2775" xml:space="preserve" style="font-size:192px;font-style:normal;font-weight:400;text-anchor:start;fill:#000;font-family:Times">Scanner</text><text id="text3518" x="2700" y="6675" xml:space="preserve" style="font-size:192px;font-style:normal;font-weight:400;text-anchor:start;fill:#000;font-family:Times">Dir</text><text id="text3520" x="150" y="6675" xml:space="preserve" style="font-size:192px;font-style:normal;font-weight:400;text-anchor:start;fill:#000;font-family:Times">Entry</text><text id="text3522" x="1425" y="6675" xml:space="preserve" style="font-size:192px;font-style:normal;font-weight:400;text-anchor:start;fill:#000;font-family:Times">File</text><text id="text3524" x="1200" y="5475" xml:space="preserve" style="font-size:192px;font-style:normal;font-weight:400;text-anchor:start;fill:#000;font-family:Times">Node.FS</text><text id="text3526" x="5325" y="6675" xml:space="preserve" style="font-size:192px;font-style:normal;font-weight:400;text-anchor:start;fill:#000;font-family:Times">Record</text><text id="text3528" x="6750" y="6675" xml:space="preserve" style="font-size:192px;font-style:normal;font-weight:400;text-anchor:start;fill:#000;font-family:Times">Field</text><text id="text3530" x="5100" y="5475" xml:space="preserve" style="font-size:192px;font-style:normal;font-weight:400;text-anchor:start;fill:#000;font-family:Times">Node.DB</text><text id="text3532" x="4050" y="6675" xml:space="preserve" style="font-size:192px;font-style:normal;font-weight:400;text-anchor:start;fill:#000;font-family:Times">Table</text><text id="text3534" x="5850" y="3375" xml:space="preserve" style="font-size:192px;font-style:normal;font-weight:400;text-anchor:start;fill:#000;font-family:Times">Wrapper</text><text id="text3536" x="1200" y="1575" xml:space="preserve" style="font-size:192px;font-style:normal;font-weight:400;text-anchor:start;fill:#000;font-family:Times">FS</text></g></g></svg>