<svg xmlns="http://www.w3.org/2000/svg" xmlns:svg="http://www.w3.org/2000/svg" id="svg2" width="744.094" height="1052.362" version="1.1"><metadata id="metadata7"/><g id="layer1"><g id="g3657" transform="matrix(0.07472826,0,0,0.07472826,105.97826,207.29425)" style="fill:none;stroke-width:.025in"><rect id="rect3659" width="1800" height="600" x="2700" y="5400" rx="0" style="stroke:#000;stroke-width:7;stroke-linecap:butt;stroke-linejoin:miter"/><rect id="rect3661" width="1800" height="600" x="2700" y="4200" rx="0" style="stroke:#000;stroke-width:7;stroke-linecap:butt;stroke-linejoin:miter"/><rect id="rect3663" width="1800" height="600" x="2700" y="3000" rx="0" style="stroke:#000;stroke-width:7;stroke-linecap:butt;stroke-linejoin:miter"/><rect id="rect3665" width="1800" height="600" x="5100" y="5400" rx="0" style="stroke:#000;stroke-width:7;stroke-linecap:butt;stroke-linejoin:miter;stroke-dasharray:40,40"/><rect id="rect3667" width="1800" height="600" x="300" y="5400" rx="0" style="stroke:#000;stroke-width:7;stroke-linecap:butt;stroke-linejoin:miter"/><rect id="rect3669" width="900" height="600" x="600" y="3300" rx="0" style="stroke:#000;stroke-width:7;stroke-linecap:butt;stroke-linejoin:miter"/><polyline id="polyline3671" points="1200 5400 1200 5100 6000 5100 6000 5400" style="stroke:#000;stroke-width:7;stroke-linecap:butt;stroke-linejoin:miter"/><polyline id="polyline3673" points="3600 4950 3600 5400" style="stroke:#000;stroke-width:7;stroke-linecap:butt;stroke-linejoin:miter"/><polygon id="polygon3675" points="3600 4800 3600 4800 3525 4950 3675 4950" style="stroke:#000;stroke-width:7;stroke-linecap:butt;stroke-linejoin:miter"/><polygon id="polygon3677" points="3640 3675 3600 3600 3600 3600 3560 3675 3600 3750" style="stroke:#000;stroke-width:7;stroke-linecap:butt;stroke-linejoin:miter"/><polygon id="polygon3679" points="1090 3975 1050 3900 1050 3900 1010 3975 1050 4050" style="stroke:#000;stroke-width:7;stroke-linecap:butt;stroke-linejoin:miter"/><polyline id="polyline3681" points="1050 4050 1050 4500 2580 4500" style="stroke:#000;stroke-width:7;stroke-linecap:butt;stroke-linejoin:miter"/><polygon id="polygon3683" points="2579 4530 2579 4530 2699 4500 2579 4470" style="fill:#000;stroke:#000;stroke-width:7;stroke-miterlimit:8"/><polyline id="polyline3685" points="3600 3750 3600 4080" style="stroke:#000;stroke-width:7;stroke-linecap:butt;stroke-linejoin:miter"/><polygon id="polygon3687" points="3570 4079 3570 4079 3600 4199 3630 4079" style="fill:#000;stroke:#000;stroke-width:7;stroke-miterlimit:8"/><polyline id="polyline3689" points="3600 3000 3600 2700" style="stroke:#000;stroke-width:7;stroke-linecap:butt;stroke-linejoin:miter;stroke-dasharray:40,40"/><text id="text3691" x="3000" y="5775" xml:space="preserve" style="font-size:192px;font-style:normal;font-weight:400;text-anchor:start;fill:#000;font-family:Times">ProgScanner</text><text id="text3693" x="3225" y="4575" xml:space="preserve" style="font-size:192px;font-style:normal;font-weight:400;text-anchor:start;fill:#000;font-family:Times">Scanner</text><text id="text3695" x="2925" y="3375" xml:space="preserve" style="font-size:192px;font-style:normal;font-weight:400;text-anchor:start;fill:#000;font-family:Times">Environment</text><text id="text3697" x="5400" y="5775" xml:space="preserve" style="font-size:192px;font-style:normal;font-weight:400;text-anchor:start;fill:#000;font-family:Times">JavaScanner</text><text id="text3699" x="750" y="5775" xml:space="preserve" style="font-size:192px;font-style:normal;font-weight:400;text-anchor:start;fill:#000;font-family:Times">CScanner</text><text id="text3701" x="825" y="3675" xml:space="preserve" style="font-size:192px;font-style:normal;font-weight:400;text-anchor:start;fill:#000;font-family:Times">Node</text></g></g></svg>