<svg xmlns="http://www.w3.org/2000/svg" xmlns:svg="http://www.w3.org/2000/svg" id="svg2" width="744.094" height="1052.362" version="1.1"><metadata id="metadata7"/><g id="layer1"><g id="g3772" transform="matrix(0.07552694,0,0,0.07552694,91.773975,249.13616)" style="fill:none;stroke-width:.025in"><rect id="rect3774" width="1500" height="600" x="1200" y="3000" rx="0" style="stroke:#000;stroke-width:7;stroke-linecap:butt;stroke-linejoin:miter"/><rect id="rect3776" width="1200" height="600" x="3300" y="4200" rx="0" style="stroke:#000;stroke-width:7;stroke-linecap:butt;stroke-linejoin:miter"/><rect id="rect3778" width="1200" height="600" x="5100" y="4200" rx="0" style="stroke:#000;stroke-width:7;stroke-linecap:butt;stroke-linejoin:miter"/><rect id="rect3780" width="1200" height="600" x="4200" y="3000" rx="0" style="stroke:#000;stroke-width:7;stroke-linecap:butt;stroke-linejoin:miter"/><polygon id="polygon3782" points="2775 3260 2700 3300 2700 3300 2775 3340 2850 3300" style="stroke:#000;stroke-width:7;stroke-linecap:butt;stroke-linejoin:miter"/><polygon id="polygon3784" points="4800 3600 4800 3600 4725 3750 4875 3750" style="stroke:#000;stroke-width:7;stroke-linecap:butt;stroke-linejoin:miter"/><polyline id="polyline3786" points="3900 4200 3900 3900 5700 3900 5700 4200" style="stroke:#000;stroke-width:7;stroke-linecap:butt;stroke-linejoin:miter"/><polyline id="polyline3788" points="4800 3750 4800 3900" style="stroke:#000;stroke-width:7;stroke-linecap:butt;stroke-linejoin:miter"/><polyline id="polyline3790" points="2850 3300 4080 3300" style="stroke:#000;stroke-width:7;stroke-linecap:butt;stroke-linejoin:miter"/><polygon id="polygon3792" points="4079 3330 4079 3330 4199 3300 4079 3270" style="fill:#000;stroke:#000;stroke-width:7;stroke-miterlimit:8"/><polyline id="polyline3794" points="1950 3000 1950 2700" style="stroke:#000;stroke-width:7;stroke-linecap:butt;stroke-linejoin:miter;stroke-dasharray:40,40"/><polyline id="polyline3796" points="4800 3000 4800 2700" style="stroke:#000;stroke-width:7;stroke-linecap:butt;stroke-linejoin:miter;stroke-dasharray:40,40"/><text id="text3798" x="1950" y="3375" xml:space="preserve" style="font-size:192px;font-style:normal;font-weight:400;text-anchor:middle;fill:#000;font-family:Times">Taskmaster</text><text id="text3800" x="3900" y="4575" xml:space="preserve" style="font-size:192px;font-style:normal;font-weight:400;text-anchor:middle;fill:#000;font-family:Times">MD5</text><text id="text3802" x="5700" y="4575" xml:space="preserve" style="font-size:192px;font-style:normal;font-weight:400;text-anchor:middle;fill:#000;font-family:Times">TStamp</text><text id="text3804" x="4800" y="3375" xml:space="preserve" style="font-size:192px;font-style:normal;font-weight:400;text-anchor:middle;fill:#000;font-family:Times">Sig</text></g></g></svg>