<svg xmlns="http://www.w3.org/2000/svg" xmlns:svg="http://www.w3.org/2000/svg" id="svg3034" width="816" height="729.6" version="1.1" viewBox="1188 1638 10224 9174"><metadata id="metadata3230"/><g id="g3036" style="fill:none;stroke-width:.025in"><rect id="rect3038" width="1500" height="600" x="2100" y="8700" rx="0" style="stroke:#000;stroke-width:7;stroke-linecap:butt;stroke-linejoin:miter"/><rect id="rect3040" width="1950" height="600" x="7050" y="6900" rx="0" style="stroke:#000;stroke-width:7;stroke-linecap:butt;stroke-linejoin:miter"/><rect id="rect3042" width="1950" height="600" x="9450" y="6900" rx="0" style="stroke:#000;stroke-width:7;stroke-linecap:butt;stroke-linejoin:miter"/><rect id="rect3044" width="1200" height="600" x="1200" y="4200" rx="0" style="stroke:#000;stroke-width:7;stroke-linecap:butt;stroke-linejoin:miter"/><rect id="rect3046" width="1200" height="600" x="2400" y="3300" rx="0" style="stroke:#000;stroke-width:7;stroke-linecap:butt;stroke-linejoin:miter"/><rect id="rect3048" width="1800" height="600" x="8700" y="1650" rx="0" style="stroke:#000;stroke-width:7;stroke-linecap:butt;stroke-linejoin:miter"/><rect id="rect3050" width="1800" height="600" x="1500" y="1650" rx="0" style="stroke:#000;stroke-width:7;stroke-linecap:butt;stroke-linejoin:miter"/><rect id="rect3052" width="1500" height="600" x="7800" y="8700" rx="0" style="stroke:#000;stroke-width:7;stroke-linecap:butt;stroke-linejoin:miter"/><rect id="rect3054" width="900" height="600" x="1500" y="10200" rx="0" style="stroke:#000;stroke-width:7;stroke-linecap:butt;stroke-linejoin:miter"/><rect id="rect3056" width="900" height="600" x="3300" y="10200" rx="0" style="stroke:#000;stroke-width:7;stroke-linecap:butt;stroke-linejoin:miter"/><rect id="rect3058" width="1200" height="600" x="6000" y="10200" rx="0" style="stroke:#000;stroke-width:7;stroke-linecap:butt;stroke-linejoin:miter"/><rect id="rect3060" width="1500" height="600" x="7800" y="10200" rx="0" style="stroke:#000;stroke-width:7;stroke-linecap:butt;stroke-linejoin:miter"/><rect id="rect3062" width="1200" height="600" x="9900" y="10200" rx="0" style="stroke:#000;stroke-width:7;stroke-linecap:butt;stroke-linejoin:miter"/><polygon id="polygon3064" points="6825 5175 6900 5100 6975 5175 6900 5250 6900 5250" style="stroke:#000;stroke-width:7;stroke-linecap:butt;stroke-linejoin:miter"/><polygon id="polygon3066" points="6225 5175 6300 5100 6375 5175 6300 5250 6300 5250" style="stroke:#000;stroke-width:7;stroke-linecap:butt;stroke-linejoin:miter"/><polygon id="polygon3068" points="5625 5175 5700 5100 5775 5175 5700 5250 5700 5250" style="stroke:#000;stroke-width:7;stroke-linecap:butt;stroke-linejoin:miter"/><rect id="rect3070" width="2400" height="2400" x="4800" y="2700" rx="0" style="stroke:#000;stroke-width:7;stroke-linecap:butt;stroke-linejoin:miter"/><polygon id="polygon3072" points="5025 5250 5175 5250 5100 5100 5100 5100" style="stroke:#000;stroke-width:7;stroke-linecap:butt;stroke-linejoin:miter"/><polyline style="stroke:#000;stroke-width:7;stroke-linecap:butt;stroke-linejoin:miter" id="polyline3074" points="6300 5250 6300 5700 8400 5700 8400 4200 7216 4200"/><polyline style="stroke:#000;stroke-width:7;stroke-miterlimit:8" id="polyline3076" points="7322 4170 7202 4200 7322 4230"/><polyline style="stroke:#000;stroke-width:7;stroke-linecap:butt;stroke-linejoin:miter" id="polyline3078" points="5700 5250 5700 6000 9000 6000 9000 3600 7216 3600"/><polyline style="stroke:#000;stroke-width:7;stroke-miterlimit:8" id="polyline3080" points="7322 3570 7202 3600 7322 3630"/><polyline style="stroke:#000;stroke-width:7;stroke-linecap:butt;stroke-linejoin:miter" id="polyline3082" points="5100 5250 5100 8100"/><polygon id="polygon3084" points="4650 3600 4725 3525 4800 3600 4725 3675 4725 3675" style="stroke:#000;stroke-width:7;stroke-linecap:butt;stroke-linejoin:miter"/><polygon id="polygon3086" points="4650 4500 4725 4425 4800 4500 4725 4575 4725 4575" style="stroke:#000;stroke-width:7;stroke-linecap:butt;stroke-linejoin:miter"/><polyline style="stroke:#000;stroke-width:7;stroke-linecap:butt;stroke-linejoin:miter" id="polyline3088" points="4650 3600 3616 3600"/><polyline style="stroke:#000;stroke-width:7;stroke-miterlimit:8" id="polyline3090" points="3722 3570 3602 3600 3722 3630"/><polyline style="stroke:#000;stroke-width:7;stroke-linecap:butt;stroke-linejoin:miter" id="polyline3092" points="4650 4500 2416 4500"/><polyline style="stroke:#000;stroke-width:7;stroke-miterlimit:8" id="polyline3094" points="2522 4470 2402 4500 2522 4530"/><polyline style="stroke:#000;stroke-width:7;stroke-linecap:butt;stroke-linejoin:miter" id="polyline3096" points="1800 2400 1800 4183"/><polyline style="stroke:#000;stroke-width:7;stroke-miterlimit:8" id="polyline3098" points="1770 4078 1800 4198 1830 4078"/><polyline style="stroke:#000;stroke-width:7;stroke-linecap:butt;stroke-linejoin:miter" id="polyline3100" points="3000 2400 3000 3283"/><polyline style="stroke:#000;stroke-width:7;stroke-miterlimit:8" id="polyline3102" points="2970 3178 3000 3298 3030 3178"/><polyline style="stroke:#000;stroke-width:7;stroke-linecap:butt;stroke-linejoin:miter;stroke-dasharray:40,40" id="polyline3104" points="5850 1950 5850 2700"/><polygon id="polygon3106" points="2925 2325 3000 2250 3075 2325 3000 2400 3000 2400" style="stroke:#000;stroke-width:7;stroke-linecap:butt;stroke-linejoin:miter"/><polygon id="polygon3108" points="1725 2325 1800 2250 1875 2325 1800 2400 1800 2400" style="stroke:#000;stroke-width:7;stroke-linecap:butt;stroke-linejoin:miter"/><polyline style="stroke:#000;stroke-width:7;stroke-linecap:butt;stroke-linejoin:miter" id="polyline3110" points="3300 1950 8700 1950"/><polyline style="stroke:#000;stroke-width:7;stroke-linecap:butt;stroke-linejoin:miter" id="polyline3112" points="9600 2400 9600 6600"/><polyline style="stroke:#000;stroke-width:7;stroke-linecap:butt;stroke-linejoin:miter" id="polyline3114" points="7950 6900 7950 6600 10350 6600 10350 6900"/><polygon id="polygon3116" points="9525 2400 9675 2400 9600 2250 9600 2250" style="stroke:#000;stroke-width:7;stroke-linecap:butt;stroke-linejoin:miter"/><polyline style="stroke:#000;stroke-width:7;stroke-linecap:butt;stroke-linejoin:miter" id="polyline3118" points="4800 3000 7200 3000"/><polyline style="stroke:#000;stroke-width:7;stroke-linecap:butt;stroke-linejoin:miter" id="polyline3120" points="4800 3300 7200 3300"/><polygon id="polygon3122" points="2775 9450 2925 9450 2850 9300 2850 9300" style="stroke:#000;stroke-width:7;stroke-linecap:butt;stroke-linejoin:miter"/><polyline style="stroke:#000;stroke-width:7;stroke-linecap:butt;stroke-linejoin:miter" id="polyline3124" points="2100 10200 2100 9900 3750 9900 3750 10200"/><polyline style="stroke:#000;stroke-width:7;stroke-linecap:butt;stroke-linejoin:miter" id="polyline3126" points="6600 10200 6600 9900 10500 9900 10500 10200 10500 10125"/><polyline style="stroke:#000;stroke-width:7;stroke-linecap:butt;stroke-linejoin:miter" id="polyline3128" points="2850 9450 2850 9900"/><polyline style="stroke:#000;stroke-width:7;stroke-linecap:butt;stroke-linejoin:miter" id="polyline3130" points="8475 9450 8475 10200"/><polygon id="polygon3132" points="8400 9450 8550 9450 8475 9300 8475 9300" style="stroke:#000;stroke-width:7;stroke-linecap:butt;stroke-linejoin:miter"/><polyline style="stroke:#000;stroke-width:7;stroke-linecap:butt;stroke-linejoin:miter" id="polyline3134" points="2775 6825"/><polyline style="stroke:#000;stroke-width:7;stroke-linecap:butt;stroke-linejoin:miter" id="polyline3136" points="1800 10200 1800 9000 2083 9000"/><polyline style="stroke:#000;stroke-width:7;stroke-miterlimit:8" id="polyline3138" points="1978 9030 2098 9000 1978 8970"/><polyline style="stroke:#000;stroke-width:7;stroke-linecap:butt;stroke-linejoin:miter" id="polyline3140" points="9900 10500 9316 10500"/><polyline style="stroke:#000;stroke-width:7;stroke-miterlimit:8" id="polyline3142" points="9422 10470 9302 10500 9422 10530"/><polyline style="stroke:#000;stroke-width:7;stroke-linecap:butt;stroke-linejoin:miter" id="polyline3144" points="7800 10500 7216 10500"/><polyline style="stroke:#000;stroke-width:7;stroke-miterlimit:8" id="polyline3146" points="7322 10470 7202 10500 7322 10530"/><polyline style="stroke:#000;stroke-width:7;stroke-linecap:butt;stroke-linejoin:miter" id="polyline3148" points="2850 8700 2850 8100 8550 8100 8550 8700"/><polyline style="stroke:#000;stroke-width:7;stroke-linecap:butt;stroke-linejoin:miter;stroke-dasharray:40,40" id="polyline3150" points="10350 7500 10350 9000 9316 9000"/><polyline style="stroke:#000;stroke-width:7;stroke-miterlimit:8" id="polyline3152" points="9422 8970 9302 9000 9422 9030"/><polyline style="stroke:#000;stroke-width:7;stroke-linecap:butt;stroke-linejoin:miter;stroke-dasharray:40,40" id="polyline3154" points="7050 7200 2400 7200 2400 8683"/><polyline style="stroke:#000;stroke-width:7;stroke-miterlimit:8" id="polyline3156" points="2370 8578 2400 8698 2430 8578"/><polyline style="stroke:#000;stroke-width:7;stroke-linecap:butt;stroke-linejoin:miter" id="polyline3158" points="6900 5250 6900 5400 7800 5400 7800 4800 7216 4800"/><polyline style="stroke:#000;stroke-width:7;stroke-miterlimit:8" id="polyline3160" points="7322 4770 7202 4800 7322 4830"/><text id="text3162" x="2400" y="9075" xml:space="preserve" style="font-size:168px;font-style:normal;font-weight:700;text-anchor:start;fill:#000;font-family:Helvetica">Node.FS</text><text id="text3164" x="7200" y="7275" xml:space="preserve" style="font-size:168px;font-style:normal;font-weight:700;text-anchor:start;fill:#000;font-family:Helvetica">Intercessor.FS</text><text id="text3166" x="9600" y="7275" xml:space="preserve" style="font-size:168px;font-style:normal;font-weight:700;text-anchor:start;fill:#000;font-family:Helvetica">Intercessor.DB</text><text id="text3168" x="1350" y="4575" xml:space="preserve" style="font-size:168px;font-style:normal;font-weight:700;text-anchor:start;fill:#000;font-family:Helvetica">Scanner</text><text id="text3170" x="2625" y="3675" xml:space="preserve" style="font-size:168px;font-style:normal;font-weight:700;text-anchor:start;fill:#000;font-family:Helvetica">Builder</text><text id="text3172" x="9000" y="2025" xml:space="preserve" style="font-size:168px;font-style:normal;font-weight:700;text-anchor:start;fill:#000;font-family:Helvetica">Intercessor</text><text id="text3174" x="1725" y="2025" xml:space="preserve" style="font-size:168px;font-style:normal;font-weight:700;text-anchor:start;fill:#000;font-family:Helvetica">Environment</text><text id="text3176" x="8100" y="9075" xml:space="preserve" style="font-size:168px;font-style:normal;font-weight:700;text-anchor:start;fill:#000;font-family:Helvetica">Node.DB</text><text id="text3178" x="1800" y="10575" xml:space="preserve" style="font-size:168px;font-style:normal;font-weight:700;text-anchor:start;fill:#000;font-family:Helvetica">Dir</text><text id="text3180" x="3600" y="10575" xml:space="preserve" style="font-size:168px;font-style:normal;font-weight:700;text-anchor:start;fill:#000;font-family:Helvetica">File</text><text id="text3182" x="6300" y="10575" xml:space="preserve" style="font-size:168px;font-style:normal;font-weight:700;text-anchor:start;fill:#000;font-family:Helvetica">Table</text><text id="text3184" x="8100" y="10575" xml:space="preserve" style="font-size:168px;font-style:normal;font-weight:700;text-anchor:start;fill:#000;font-family:Helvetica">Record</text><text id="text3186" x="10200" y="10575" xml:space="preserve" style="font-size:168px;font-style:normal;font-weight:700;text-anchor:start;fill:#000;font-family:Helvetica">Field</text><text id="text3188" x="4950" y="2925" xml:space="preserve" style="font-size:168px;font-style:normal;font-weight:700;text-anchor:start;fill:#000;font-family:Helvetica">Node</text><text id="text3190" x="7350" y="3525" xml:space="preserve" style="font-size:120px;font-style:normal;font-weight:400;text-anchor:start;fill:#000;font-family:Helvetica">dependency</text><text id="text3192" x="7425" y="3825" xml:space="preserve" style="font-size:120px;font-style:normal;font-weight:400;text-anchor:start;fill:#000;font-family:Helvetica">*</text><text id="text3194" x="7350" y="4125" xml:space="preserve" style="font-size:120px;font-style:normal;font-weight:400;text-anchor:start;fill:#000;font-family:Helvetica">srcnode</text><text id="text3196" x="7425" y="4425" xml:space="preserve" style="font-size:120px;font-style:normal;font-weight:400;text-anchor:start;fill:#000;font-family:Helvetica">1</text><text id="text3198" x="7350" y="4725" xml:space="preserve" style="font-size:120px;font-style:normal;font-weight:400;text-anchor:start;fill:#000;font-family:Helvetica">repnode</text><text id="text3200" x="7425" y="5025" xml:space="preserve" style="font-size:120px;font-style:normal;font-weight:400;text-anchor:start;fill:#000;font-family:Helvetica">1</text><text id="text3202" x="2550" y="4725" xml:space="preserve" style="font-size:120px;font-style:normal;font-weight:400;text-anchor:start;fill:#000;font-family:Helvetica">0..1</text><text id="text3204" x="3750" y="3825" xml:space="preserve" style="font-size:120px;font-style:normal;font-weight:400;text-anchor:start;fill:#000;font-family:Helvetica">0..1</text><text id="text3206" x="1875" y="4050" xml:space="preserve" style="font-size:144px;font-style:normal;font-weight:400;text-anchor:start;fill:#000;font-family:Times">*</text><text id="text3208" x="3075" y="3150" xml:space="preserve" style="font-size:144px;font-style:normal;font-weight:400;text-anchor:start;fill:#000;font-family:Times">*</text><text id="text3210" x="5100" y="3750" xml:space="preserve" style="font-size:168px;font-style:normal;font-weight:400;text-anchor:start;fill:#000;font-family:Helvetica">build()</text><text id="text3212" x="5100" y="4260" xml:space="preserve" style="font-size:168px;font-style:normal;font-weight:400;text-anchor:start;fill:#000;font-family:Helvetica">scan()</text><text id="text3214" x="9750" y="10725" xml:space="preserve" style="font-size:144px;font-style:normal;font-weight:400;text-anchor:start;fill:#000;font-family:Times">1</text><text id="text3216" x="1650" y="10125" xml:space="preserve" style="font-size:120px;font-style:normal;font-weight:400;text-anchor:start;fill:#000;font-family:Helvetica">1</text><text id="text3218" x="1875" y="9225" xml:space="preserve" style="font-size:120px;font-style:normal;font-weight:400;text-anchor:start;fill:#000;font-family:Helvetica">*</text><text id="text3220" x="7650" y="10725" xml:space="preserve" style="font-size:120px;font-style:normal;font-weight:400;text-anchor:start;fill:#000;font-family:Helvetica">1</text><text id="text3222" x="7275" y="10725" xml:space="preserve" style="font-size:120px;font-style:normal;font-weight:400;text-anchor:start;fill:#000;font-family:Helvetica">*</text><text id="text3224" x="9375" y="10725" xml:space="preserve" style="font-size:120px;font-style:normal;font-weight:400;text-anchor:start;fill:#000;font-family:Helvetica">*</text></g></svg>